<?xml version="1.0" encoding="utf-8"?>
<!-- Generator: Adobe Illustrator 16.0.0, SVG Export Plug-In . SVG Version: 6.00 Build 0)  -->
<!DOCTYPE svg PUBLIC "-//W3C//DTD SVG 1.1//EN" "http://www.w3.org/Graphics/SVG/1.1/DTD/svg11.dtd">
<svg version="1.1" id="Layer_1" xmlns="http://www.w3.org/2000/svg" xmlns:xlink="http://www.w3.org/1999/xlink" x="0px" y="0px"
	 width="50px" height="50px" viewBox="0 0 50 50" enable-background="new 0 0 50 50" xml:space="preserve">
<path fill-rule="evenodd" clip-rule="evenodd" fill="#808080" d="M8.219,17.374h33.959c0.697,0,1.263,0.568,1.263,1.262v21.455
	c0,0.696-0.565,1.263-1.263,1.263H8.219c-0.697,0-1.263-0.566-1.263-1.263V18.636C6.956,17.942,7.521,17.374,8.219,17.374z"/>
<rect x="8.85" y="19.878" fill-rule="evenodd" clip-rule="evenodd" fill="#FFFFFF" width="32.697" height="17.555"/>
<rect x="24.423" y="38.523" fill-rule="evenodd" clip-rule="evenodd" fill="#CCCCCC" width="1.551" height="1.551"/>
<polyline fill-rule="evenodd" clip-rule="evenodd" fill="#808080" points="0.617,45.509 6.956,41.354 43.44,41.354 49.779,45.509 
	0.617,45.509 "/>
<path fill-rule="evenodd" clip-rule="evenodd" fill="#4D4D4E" d="M0.617,45.509h49.162v1.412c0,0.5-0.412,0.912-0.914,0.912H1.531
	c-0.502,0-0.914-0.412-0.914-0.912"/>
<rect x="20.232" y="46.713" fill-rule="evenodd" clip-rule="evenodd" fill="#808080" width="9.931" height="0.633"/>
<polyline fill-rule="evenodd" clip-rule="evenodd" fill="#666766" points="0.617,45.509 49.779,45.509 49.779,46.215 0.617,46.215 
	"/>
<path fill-rule="evenodd" clip-rule="evenodd" fill="#CCCCCC" d="M40.262,45.008v-0.881l6.324-0.014
	c0.222,0.146,0.436,0.293,0.659,0.437c0.219,0.145,0.437,0.289,0.655,0.433C45.354,44.992,42.807,45,40.262,45.008L40.262,45.008z
	 M40.262,43.763v-0.876h0.444c0.172,0.147,0.344,0.292,0.517,0.44c0.165,0.144,0.341,0.288,0.505,0.436H40.262L40.262,43.763z
	 M40.262,42.547v-0.042l0.047,0.042H40.262L40.262,42.547z M40.262,41.709c0.168,0.137,0.338,0.271,0.506,0.402
	c0.183,0.145,0.363,0.292,0.542,0.436c0.97,0,1.938,0,2.913,0c-0.214-0.144-0.432-0.286-0.653-0.436
	c-0.214-0.144-0.436-0.288-0.656-0.437h-2.651V41.709L40.262,41.709z M41.735,42.887c0.999,0,1.997,0,3,0
	c0.216,0.143,0.437,0.286,0.655,0.433c0.217,0.143,0.436,0.291,0.653,0.436c-1.07,0.003-2.142,0.003-3.208,0.003
	c-0.185-0.143-0.367-0.292-0.547-0.436C42.104,43.179,41.916,43.034,41.735,42.887z M10.175,44.191l3.76-0.01
	c3.499-0.004,6.999-0.012,10.508-0.021c-0.024,0.149-0.045,0.296-0.066,0.45c-0.021,0.146-0.045,0.297-0.063,0.444
	c-3.733,0.013-7.464,0.021-11.193,0.034l-2.945,0.008V44.191L10.175,44.191z M40.262,41.675v0.034l-0.046-0.034H40.262
	L40.262,41.675z M40.262,42.505c-0.151-0.13-0.306-0.262-0.461-0.394c-0.169-0.148-0.343-0.292-0.512-0.441
	c-0.901,0-1.797,0-2.695,0c0.139,0.145,0.27,0.293,0.402,0.437c0.139,0.149,0.273,0.297,0.407,0.44c0.949,0,1.904,0,2.858,0V42.505
	L40.262,42.505z M40.262,42.887v0.876l-1.737,0.004c-0.134-0.144-0.266-0.292-0.4-0.439c-0.137-0.145-0.275-0.293-0.403-0.438
	C38.563,42.89,39.413,42.887,40.262,42.887L40.262,42.887z M40.262,44.127v0.881l-1.195,0.004c-2.942,0.01-5.888,0.018-8.828,0.027
	c-0.043-0.15-0.079-0.298-0.121-0.446c-0.04-0.147-0.077-0.297-0.114-0.443c2.763-0.005,5.524-0.015,8.287-0.018L40.262,44.127
	L40.262,44.127z M10.175,43.813v-0.908c0.793,0,1.586,0,2.387,0c-0.172,0.151-0.337,0.304-0.501,0.457
	c-0.168,0.147-0.329,0.301-0.497,0.451H10.175L10.175,43.813z M10.175,42.552v-0.106c0.152-0.117,0.309-0.231,0.463-0.351
	c0.2-0.149,0.399-0.306,0.604-0.457c0.896,0.004,1.792,0.004,2.693,0.004c-0.166,0.15-0.332,0.304-0.496,0.453
	c-0.167,0.151-0.336,0.304-0.497,0.457C12.019,42.552,11.097,42.552,10.175,42.552L10.175,42.552z M10.175,41.734
	c0.047-0.035,0.093-0.064,0.139-0.097h-0.139V41.734L10.175,41.734z M25.57,44.16c1.1-0.003,2.195-0.008,3.299-0.008
	c0.021,0.148,0.05,0.296,0.077,0.444c0.027,0.149,0.055,0.297,0.084,0.445c-1.171,0.005-2.341,0.005-3.509,0.008
	c0.008-0.147,0.017-0.296,0.024-0.443C25.551,44.456,25.563,44.31,25.57,44.16L25.57,44.16z M13.59,42.904c0.992,0,1.995,0,2.992,0
	c-0.119,0.146-0.238,0.301-0.354,0.447c-0.116,0.152-0.235,0.301-0.353,0.453c-1.073,0-2.145,0.005-3.211,0.005
	c0.156-0.151,0.312-0.301,0.465-0.453C13.282,43.208,13.433,43.056,13.59,42.904L13.59,42.904z M17.606,42.897
	c0.998,0,1.995,0,2.996,0c-0.072,0.153-0.142,0.303-0.209,0.45c-0.069,0.153-0.141,0.301-0.208,0.449
	c-1.069,0.005-2.143,0.005-3.208,0.008c0.104-0.152,0.213-0.301,0.315-0.453C17.397,43.205,17.501,43.051,17.606,42.897
	L17.606,42.897z M21.632,42.897c0.999,0,1.991,0,2.989-0.003c-0.024,0.152-0.044,0.301-0.064,0.448
	c-0.021,0.148-0.042,0.298-0.064,0.449c-1.07,0-2.138,0-3.203,0.005c0.06-0.153,0.116-0.299,0.174-0.449
	C21.52,43.2,21.572,43.047,21.632,42.897L21.632,42.897z M25.655,42.895c0.994,0,1.988,0,2.987,0
	c0.024,0.149,0.05,0.296,0.077,0.445c0.029,0.148,0.057,0.296,0.079,0.444c-1.07,0-2.137,0.005-3.205,0.005
	c0.015-0.148,0.026-0.298,0.034-0.446C25.634,43.195,25.641,43.047,25.655,42.895L25.655,42.895z M29.674,42.895
	c0.995,0,1.993,0,2.995-0.005c0.067,0.149,0.146,0.298,0.219,0.447c0.075,0.146,0.154,0.289,0.226,0.439
	c-1.068,0.004-2.142,0.004-3.208,0.004c-0.035-0.149-0.077-0.297-0.114-0.44C29.751,43.19,29.709,43.044,29.674,42.895
	L29.674,42.895z M33.695,42.89c0.996,0,1.993,0,2.99,0c0.119,0.149,0.243,0.293,0.369,0.44c0.122,0.145,0.247,0.293,0.366,0.441
	c-1.071,0-2.14,0-3.208,0.005c-0.083-0.15-0.172-0.297-0.257-0.446C33.871,43.188,33.775,43.039,33.695,42.89L33.695,42.89z
	 M14.862,41.642c0.896,0.005,1.799,0.005,2.698,0.005c-0.118,0.152-0.238,0.299-0.353,0.453c-0.114,0.151-0.241,0.299-0.355,0.452
	c-0.969,0-1.938,0-2.908,0c0.15-0.153,0.307-0.306,0.46-0.452C14.555,41.945,14.706,41.792,14.862,41.642L14.862,41.642z
	 M18.485,41.646c0.896,0.003,1.795,0.003,2.691,0.003c-0.067,0.152-0.137,0.301-0.206,0.45c-0.069,0.151-0.142,0.299-0.208,0.452
	c-0.973,0-1.941,0-2.908,0c0.102-0.153,0.208-0.301,0.313-0.452C18.271,41.95,18.374,41.799,18.485,41.646L18.485,41.646z
	 M22.108,41.649c0.894,0.003,1.788,0.003,2.692,0.003c-0.024,0.149-0.045,0.301-0.064,0.45c-0.021,0.148-0.047,0.296-0.065,0.444
	c-0.971,0.005-1.938,0.005-2.905,0.005c0.055-0.153,0.117-0.301,0.172-0.449C21.992,41.95,22.052,41.802,22.108,41.649
	L22.108,41.649z M25.728,41.659c0.896,0,1.794,0,2.693,0c0.027,0.147,0.055,0.294,0.08,0.443c0.024,0.148,0.053,0.296,0.077,0.444
	c-0.97,0-1.936,0-2.905,0.005c0.01-0.153,0.018-0.301,0.027-0.449C25.71,41.953,25.72,41.807,25.728,41.659L25.728,41.659z
	 M29.352,41.662c0.896,0,1.797,0,2.693,0c0.077,0.148,0.149,0.298,0.226,0.444c0.075,0.149,0.145,0.292,0.222,0.44
	c-0.974,0-1.941,0-2.912,0c-0.037-0.148-0.077-0.291-0.114-0.44C29.428,41.96,29.388,41.811,29.352,41.662L29.352,41.662z
	 M32.972,41.667c0.896,0,1.793,0,2.692,0c0.127,0.147,0.25,0.296,0.367,0.439c0.125,0.149,0.251,0.292,0.368,0.44
	c-0.97,0-1.943,0-2.907,0c-0.088-0.148-0.173-0.291-0.264-0.44C33.144,41.963,33.059,41.811,32.972,41.667z M8.448,44.195
	l1.727-0.004v0.905l-1.727,0.005V44.195L8.448,44.195z M10.175,41.638v0.097c-0.169,0.122-0.335,0.241-0.5,0.36
	c-0.216,0.151-0.434,0.304-0.641,0.457H8.448v-0.92C9.024,41.638,9.599,41.638,10.175,41.638L10.175,41.638z M10.175,42.445
	c-0.047,0.034-0.092,0.069-0.139,0.106h0.139V42.445L10.175,42.445z M10.175,42.904v0.908l-1.727,0.007V43.75
	c0.174-0.127,0.347-0.259,0.517-0.389c0.199-0.148,0.4-0.306,0.604-0.454L10.175,42.904L10.175,42.904z M8.448,42.972l0.091-0.064
	H8.448V42.972z M3.436,44.202l5.013-0.007v0.906c-2.171,0.008-4.34,0.013-6.509,0.021c0.253-0.151,0.499-0.306,0.747-0.458
	C2.934,44.513,3.185,44.356,3.436,44.202L3.436,44.202z M8.448,41.632v0.92c-0.775,0-1.549,0-2.317,0
	c0.241-0.153,0.493-0.306,0.744-0.457c0.248-0.152,0.496-0.311,0.75-0.463H8.448L8.448,41.632z M8.448,42.907v0.064
	c-0.183,0.13-0.368,0.257-0.552,0.394c-0.215,0.146-0.425,0.305-0.64,0.454c-1.071,0.003-2.139,0.003-3.203,0.008
	c0.249-0.154,0.499-0.306,0.748-0.462c0.248-0.152,0.497-0.307,0.75-0.458C6.512,42.907,7.481,42.907,8.448,42.907L8.448,42.907z
	 M8.448,43.75L8.36,43.819h0.088V43.75z"/>
<g>
	<rect x="12.827" y="2.875" fill-rule="evenodd" clip-rule="evenodd" fill="#4D4D4E" width="24.742" height="34.558"/>
	<g>
		<rect x="14.634" y="4.867" fill-rule="evenodd" clip-rule="evenodd" fill="#F2685D" width="11.877" height="0.452"/>
		<rect x="14.634" y="5.982" fill-rule="evenodd" clip-rule="evenodd" fill="#9BCAE6" width="3.805" height="0.452"/>
		<rect x="14.634" y="7.095" fill-rule="evenodd" clip-rule="evenodd" fill="#CDCCCC" width="6.138" height="0.451"/>
		<rect x="17.489" y="8.211" fill-rule="evenodd" clip-rule="evenodd" fill="#9BCAE6" width="3.583" height="0.451"/>
		<rect x="17.489" y="9.323" fill-rule="evenodd" clip-rule="evenodd" fill="#9BCAE6" width="3.583" height="0.452"/>
		<rect x="19.975" y="10.439" fill-rule="evenodd" clip-rule="evenodd" fill="#9BCAE6" width="3.484" height="0.451"/>
		<rect x="19.721" y="5.982" fill-rule="evenodd" clip-rule="evenodd" fill="#CDCCCC" width="6.489" height="0.452"/>
		<rect x="27.135" y="5.982" fill-rule="evenodd" clip-rule="evenodd" fill="#CDCCCC" width="3.101" height="0.452"/>
		<rect x="31.412" y="5.982" fill-rule="evenodd" clip-rule="evenodd" fill="#CDCCCC" width="4.183" height="0.452"/>
		<rect x="21.798" y="7.095" fill-rule="evenodd" clip-rule="evenodd" fill="#9BCAE6" width="3.649" height="0.451"/>
		<rect x="22.164" y="8.211" fill-rule="evenodd" clip-rule="evenodd" fill="#CDCCCC" width="2.092" height="0.451"/>
		<rect x="22.164" y="9.323" fill-rule="evenodd" clip-rule="evenodd" fill="#CDCCCC" width="3.581" height="0.452"/>
		<rect x="25.248" y="8.211" fill-rule="evenodd" clip-rule="evenodd" fill="#CDCCCC" width="3.981" height="0.451"/>
		<rect x="30.026" y="8.211" fill-rule="evenodd" clip-rule="evenodd" fill="#CDCCCC" width="2.088" height="0.451"/>
		<rect x="33.01" y="8.211" fill-rule="evenodd" clip-rule="evenodd" fill="#CDCCCC" width="2.585" height="0.451"/>
		<rect x="26.54" y="9.323" fill-rule="evenodd" clip-rule="evenodd" fill="#CDCCCC" width="4.525" height="0.452"/>
		<rect x="31.741" y="9.323" fill-rule="evenodd" clip-rule="evenodd" fill="#CDCCCC" width="1.35" height="0.452"/>
		<rect x="24.453" y="10.439" fill-rule="evenodd" clip-rule="evenodd" fill="#CDCCCC" width="2.589" height="0.451"/>
		<rect x="17.489" y="12.667" fill-rule="evenodd" clip-rule="evenodd" fill="#9BCAE6" width="3.583" height="0.452"/>
		<rect x="17.489" y="13.783" fill-rule="evenodd" clip-rule="evenodd" fill="#9BCAE6" width="3.583" height="0.451"/>
		<rect x="22.164" y="12.667" fill-rule="evenodd" clip-rule="evenodd" fill="#CDCCCC" width="2.092" height="0.452"/>
		<rect x="22.164" y="13.783" fill-rule="evenodd" clip-rule="evenodd" fill="#CDCCCC" width="3.226" height="0.451"/>
		<rect x="25.248" y="12.667" fill-rule="evenodd" clip-rule="evenodd" fill="#CDCCCC" width="3.06" height="0.452"/>
		<rect x="28.921" y="12.667" fill-rule="evenodd" clip-rule="evenodd" fill="#CDCCCC" width="1.61" height="0.452"/>
		<rect x="31.221" y="12.667" fill-rule="evenodd" clip-rule="evenodd" fill="#CDCCCC" width="1.987" height="0.452"/>
		<rect x="28.53" y="13.783" fill-rule="evenodd" clip-rule="evenodd" fill="#CDCCCC" width="3.584" height="0.451"/>
		<rect x="17.489" y="14.895" fill-rule="evenodd" clip-rule="evenodd" fill="#9BCAE6" width="3.583" height="0.451"/>
		<rect x="17.489" y="16.01" fill-rule="evenodd" clip-rule="evenodd" fill="#9BCAE6" width="3.583" height="0.451"/>
		<rect x="22.164" y="14.895" fill-rule="evenodd" clip-rule="evenodd" fill="#CDCCCC" width="2.092" height="0.451"/>
		<rect x="22.164" y="16.01" fill-rule="evenodd" clip-rule="evenodd" fill="#CDCCCC" width="6.566" height="0.451"/>
		<rect x="25.248" y="14.895" fill-rule="evenodd" clip-rule="evenodd" fill="#CDCCCC" width="3.981" height="0.451"/>
		<rect x="30.026" y="14.895" fill-rule="evenodd" clip-rule="evenodd" fill="#CDCCCC" width="2.088" height="0.451"/>
		<rect x="33.01" y="14.895" fill-rule="evenodd" clip-rule="evenodd" fill="#CDCCCC" width="2.585" height="0.451"/>
		<rect x="29.525" y="16.01" fill-rule="evenodd" clip-rule="evenodd" fill="#CDCCCC" width="3.683" height="0.451"/>
		<rect x="26.107" y="13.783" fill-rule="evenodd" clip-rule="evenodd" fill="#CDCCCC" width="1.524" height="0.451"/>
		<rect x="14.634" y="18.238" fill-rule="evenodd" clip-rule="evenodd" fill="#9BCAE6" width="3.805" height="0.451"/>
		<rect x="14.634" y="19.351" fill-rule="evenodd" clip-rule="evenodd" fill="#CDCCCC" width="6.138" height="0.451"/>
		<rect x="17.489" y="20.467" fill-rule="evenodd" clip-rule="evenodd" fill="#9BCAE6" width="3.583" height="0.451"/>
		<rect x="17.489" y="21.579" fill-rule="evenodd" clip-rule="evenodd" fill="#9BCAE6" width="3.583" height="0.455"/>
		<rect x="19.975" y="22.695" fill-rule="evenodd" clip-rule="evenodd" fill="#9BCAE6" width="3.484" height="0.451"/>
		<rect x="19.721" y="18.238" fill-rule="evenodd" clip-rule="evenodd" fill="#CDCCCC" width="3.601" height="0.451"/>
		<rect x="24.244" y="18.238" fill-rule="evenodd" clip-rule="evenodd" fill="#CDCCCC" width="1.818" height="0.451"/>
		<rect x="27.239" y="18.238" fill-rule="evenodd" clip-rule="evenodd" fill="#CDCCCC" width="5.785" height="0.451"/>
		<rect x="21.798" y="19.351" fill-rule="evenodd" clip-rule="evenodd" fill="#9BCAE6" width="3.649" height="0.451"/>
		<rect x="22.164" y="20.467" fill-rule="evenodd" clip-rule="evenodd" fill="#CDCCCC" width="4.081" height="0.451"/>
		<rect x="22.164" y="21.579" fill-rule="evenodd" clip-rule="evenodd" fill="#CDCCCC" width="2.783" height="0.455"/>
		<rect x="27.239" y="20.467" fill-rule="evenodd" clip-rule="evenodd" fill="#CDCCCC" width="3.033" height="0.451"/>
		<rect x="25.745" y="21.579" fill-rule="evenodd" clip-rule="evenodd" fill="#CDCCCC" width="5.32" height="0.455"/>
		<rect x="31.741" y="21.579" fill-rule="evenodd" clip-rule="evenodd" fill="#CDCCCC" width="1.35" height="0.455"/>
		<rect x="24.453" y="22.695" fill-rule="evenodd" clip-rule="evenodd" fill="#CDCCCC" width="2.589" height="0.451"/>
		<rect x="27.618" y="22.695" fill-rule="evenodd" clip-rule="evenodd" fill="#CDCCCC" width="4.82" height="0.451"/>
		<rect x="33.156" y="22.695" fill-rule="evenodd" clip-rule="evenodd" fill="#CDCCCC" width="1.439" height="0.451"/>
		<rect x="17.489" y="24.924" fill-rule="evenodd" clip-rule="evenodd" fill="#9BCAE6" width="3.583" height="0.45"/>
		<rect x="17.489" y="26.039" fill-rule="evenodd" clip-rule="evenodd" fill="#9BCAE6" width="3.583" height="0.451"/>
		<rect x="22.164" y="24.924" fill-rule="evenodd" clip-rule="evenodd" fill="#CDCCCC" width="5.897" height="0.45"/>
		<rect x="22.164" y="26.039" fill-rule="evenodd" clip-rule="evenodd" fill="#CDCCCC" width="3.226" height="0.451"/>
		<rect x="28.921" y="24.924" fill-rule="evenodd" clip-rule="evenodd" fill="#CDCCCC" width="1.61" height="0.45"/>
		<rect x="31.221" y="24.924" fill-rule="evenodd" clip-rule="evenodd" fill="#CDCCCC" width="1.987" height="0.45"/>
		<rect x="28.53" y="26.039" fill-rule="evenodd" clip-rule="evenodd" fill="#CDCCCC" width="3.584" height="0.451"/>
		<rect x="26.107" y="26.039" fill-rule="evenodd" clip-rule="evenodd" fill="#CDCCCC" width="1.524" height="0.451"/>
		<rect x="14.634" y="27.866" fill-rule="evenodd" clip-rule="evenodd" fill="#9BCAE6" width="3.805" height="0.45"/>
		<rect x="14.634" y="28.978" fill-rule="evenodd" clip-rule="evenodd" fill="#CDCCCC" width="6.138" height="0.452"/>
		<rect x="17.489" y="30.094" fill-rule="evenodd" clip-rule="evenodd" fill="#9BCAE6" width="3.583" height="0.451"/>
		<rect x="17.489" y="31.206" fill-rule="evenodd" clip-rule="evenodd" fill="#9BCAE6" width="3.583" height="0.45"/>
		<rect x="19.975" y="32.322" fill-rule="evenodd" clip-rule="evenodd" fill="#9BCAE6" width="3.484" height="0.448"/>
		<rect x="19.721" y="27.866" fill-rule="evenodd" clip-rule="evenodd" fill="#CDCCCC" width="3.601" height="0.45"/>
		<rect x="24.244" y="27.866" fill-rule="evenodd" clip-rule="evenodd" fill="#CDCCCC" width="1.818" height="0.45"/>
		<rect x="27.239" y="27.866" fill-rule="evenodd" clip-rule="evenodd" fill="#CDCCCC" width="8.355" height="0.45"/>
		<rect x="21.798" y="28.978" fill-rule="evenodd" clip-rule="evenodd" fill="#9BCAE6" width="3.649" height="0.452"/>
		<rect x="22.164" y="30.094" fill-rule="evenodd" clip-rule="evenodd" fill="#CDCCCC" width="4.081" height="0.451"/>
		<rect x="22.164" y="31.206" fill-rule="evenodd" clip-rule="evenodd" fill="#CDCCCC" width="2.783" height="0.45"/>
		<rect x="27.239" y="30.094" fill-rule="evenodd" clip-rule="evenodd" fill="#CDCCCC" width="3.033" height="0.451"/>
		<rect x="31.068" y="30.094" fill-rule="evenodd" clip-rule="evenodd" fill="#CDCCCC" width="1.845" height="0.451"/>
		<rect x="33.808" y="30.094" fill-rule="evenodd" clip-rule="evenodd" fill="#CDCCCC" width="1.787" height="0.451"/>
		<rect x="25.745" y="31.206" fill-rule="evenodd" clip-rule="evenodd" fill="#CDCCCC" width="5.32" height="0.45"/>
		<rect x="31.741" y="31.206" fill-rule="evenodd" clip-rule="evenodd" fill="#CDCCCC" width="1.35" height="0.45"/>
		<rect x="24.453" y="32.322" fill-rule="evenodd" clip-rule="evenodd" fill="#CDCCCC" width="2.589" height="0.448"/>
		<rect x="17.489" y="34.549" fill-rule="evenodd" clip-rule="evenodd" fill="#9BCAE6" width="3.583" height="0.45"/>
		<rect x="17.489" y="35.665" fill-rule="evenodd" clip-rule="evenodd" fill="#9BCAE6" width="3.583" height="0.448"/>
		<rect x="22.164" y="34.549" fill-rule="evenodd" clip-rule="evenodd" fill="#CDCCCC" width="5.897" height="0.45"/>
		<rect x="22.164" y="35.665" fill-rule="evenodd" clip-rule="evenodd" fill="#CDCCCC" width="3.226" height="0.448"/>
		<rect x="28.921" y="34.549" fill-rule="evenodd" clip-rule="evenodd" fill="#CDCCCC" width="1.61" height="0.45"/>
		<rect x="31.221" y="34.549" fill-rule="evenodd" clip-rule="evenodd" fill="#CDCCCC" width="1.987" height="0.45"/>
		<rect x="28.53" y="35.665" fill-rule="evenodd" clip-rule="evenodd" fill="#CDCCCC" width="3.584" height="0.448"/>
		<rect x="26.107" y="35.665" fill-rule="evenodd" clip-rule="evenodd" fill="#CDCCCC" width="1.524" height="0.448"/>
	</g>
</g>
<g>
	<line fill-rule="evenodd" clip-rule="evenodd" fill="#EF4237" x1="15.198" y1="16.056" x2="15.198" y2="12.733"/>
</g>
</svg>
