<?xml version="1.0" encoding="utf-8"?>
<!-- Generator: Adobe Illustrator 16.0.0, SVG Export Plug-In . SVG Version: 6.00 Build 0)  -->
<!DOCTYPE svg PUBLIC "-//W3C//DTD SVG 1.1//EN" "http://www.w3.org/Graphics/SVG/1.1/DTD/svg11.dtd">
<svg version="1.1" id="Layer_1" xmlns="http://www.w3.org/2000/svg" xmlns:xlink="http://www.w3.org/1999/xlink" x="0px" y="0px"
	 width="50px" height="50px" viewBox="0 0 50 50" enable-background="new 0 0 50 50" xml:space="preserve">
<g>
	<path d="M31.403,47.742c-0.855-0.629-0.948-1.574-0.948-1.574l-0.319-2.051H19.914l-0.322,2.048c0,0-0.09,0.948-0.945,1.577
		c-0.854,0.63-1.53,1.167-0.854,1.26c0.65,0.085,6.779,0.009,7.233,0c0.453,0.009,6.583,0.085,7.232,0
		C32.931,48.909,32.257,48.372,31.403,47.742L31.403,47.742z M31.403,47.742"/>
	<g>
		<defs>
			<rect id="SVGID_1_" x="0.35" y="2.293" width="49.301" height="46.884"/>
		</defs>
		<clipPath id="SVGID_2_">
			<use xlink:href="#SVGID_1_"  overflow="visible"/>
		</clipPath>
		<path clip-path="url(#SVGID_2_)" d="M13.509,31.362c2.732-0.024,3.071-0.683,3.961-3.42c1.642-4.329,9.037,1.133,4.454,3.024
			C17.343,32.864,10.779,31.385,13.509,31.362L13.509,31.362z M13.509,31.362"/>
		<path clip-path="url(#SVGID_2_)" d="M41.514,2.844c-1.325-1.067-3.522-0.539-4.906,1.177L22.598,23.926
			c-1.384,1.717-1.377,1.39-0.053,2.456c1.326,1.067,1.008,1.145,2.391-0.572L41.409,7.888C42.788,6.171,42.838,3.912,41.514,2.844
			L41.514,2.844z M37.911,5.228c0,0-0.207-0.239-0.888-0.784c1.022-1.671,3.033-1.366,3.033-1.366
			C38.15,4.206,37.911,5.228,37.911,5.228L37.911,5.228z M37.911,5.228"/>
		<path clip-path="url(#SVGID_2_)" d="M47.727,9.572h-6.163l-2.717,2.961h7.89v23.688H3.312V12.533h25.263l2.084-2.961H2.323
			c-1.088,0-1.973,0.885-1.973,1.973v28.624c0,1.09,0.885,1.975,1.973,1.975h45.404c1.091,0,1.974-0.885,1.974-1.975V11.545
			C49.7,10.458,48.817,9.572,47.727,9.572L47.727,9.572z M47.727,9.572"/>
	</g>
</g>
</svg>
